<svg t="1713681131292" class="icon" viewBox="0 0 1024 1024" version="1.1" xmlns="http://www.w3.org/2000/svg" p-id="6370" width="4138" height="4138"><path d="M609.6384 392.4992a68.3008 68.3008 0 1 0 0-136.6016 68.3008 68.3008 0 0 0 0 136.6016z m165.0688 0.4096a39.3216 39.3216 0 1 0 0-78.6432 39.3216 39.3216 0 0 0 0 78.6432z m0 314.6752a39.3216 39.3216 0 1 0 0-78.6432 39.3216 39.3216 0 0 0 0 78.592z m-271.36-467.6608a39.3216 39.3216 0 1 0 0-78.592 39.3216 39.3216 0 0 0 0 78.592zM232.704 392.9088a39.3216 39.3216 0 1 0 0-78.6432 39.3216 39.3216 0 0 0 0 78.6432z m0 318.1056a39.3216 39.3216 0 1 0 0-78.6432 39.3216 39.3216 0 0 0 0 78.6432z m665.1392-168.5504a28.5184 28.5184 0 1 0 0-57.0368 28.5184 28.5184 0 0 0 0 57.0368zM702.976 202.3424a28.5184 28.5184 0 1 0 0-57.0368 28.5184 28.5184 0 0 0 0 57.0368z m178.4832 104.1408a12.544 12.544 0 1 0 0-25.088 12.544 12.544 0 0 0 0 25.088z m0 438.272a12.544 12.544 0 1 0 0-25.088 12.544 12.544 0 0 0 0 25.088z m-371.712 218.2144a12.544 12.544 0 1 0 0-25.088 12.544 12.544 0 0 0 0 25.088zM123.392 744.7552a12.544 12.544 0 1 0 0-25.088 12.544 12.544 0 0 0 0 25.088z m0-440.4224a12.544 12.544 0 1 0 0-25.088 12.544 12.544 0 0 0 0 25.088zM498.9952 86.528a12.544 12.544 0 1 0 0-25.088 12.544 12.544 0 0 0 0 25.088zM303.2064 202.3424a28.5184 28.5184 0 1 0 0-57.0368 28.5184 28.5184 0 0 0 0 57.0368z m-192.768 340.1216a28.5184 28.5184 0 1 0 0-57.0368 28.5184 28.5184 0 0 0 0 57.0368z m198.8096 337.9712a28.5184 28.5184 0 1 0 0-57.0368 28.5184 28.5184 0 1 0 0 57.0368z m393.728 3.8912a28.5184 28.5184 0 1 0 1.536-57.0368 28.5184 28.5184 0 0 0-1.536 57.0368z m-199.68-17.7152a39.3216 39.3216 0 1 0 0-78.6432 39.3216 39.3216 0 0 0 0 78.6432z m216.064-291.328a64.8192 64.8192 0 1 0 0-129.6384 64.8192 64.8192 0 0 0 0 129.6384z m-216.064 31.1296a92.4672 92.4672 0 1 0 0-184.9344 92.4672 92.4672 0 0 0 0 184.9344z m-215.6544-31.0784a64.8192 64.8192 0 1 0 0-129.6896 64.8192 64.8192 0 0 0 0 129.6384z m106.752-186.3168a64.8192 64.8192 0 1 0 2.304-129.6384 64.8192 64.8192 0 0 0-2.304 129.6384z m0 376.4736a64.8192 64.8192 0 1 0 0-129.6384 64.8192 64.8192 0 0 0 0 129.5872z m215.2448 3.4304a64.8192 64.8192 0 1 0 0-129.6384 64.8192 64.8192 0 0 0 0 129.6384z" fill="#1679FF" p-id="6371"></path><path d="M393.9328 389.0688s43.2128-12.544 33.28 71.7312c-9.9328 84.2752 91.2384 25.088 91.2384 25.088l-14.6944-63.5392s-59.648 10.3424-58.368-57.9072c23.7568-92.928-51.4048 24.576-51.4048 24.576z m35.8912 176.2816s9.9328 55.808-35.84 73.0624c-89.9072 37.1712 7.7312 102.8608 7.7312 102.8608l43.2128-76.9024a64.8192 64.8192 0 0 1 43.2128-60.5184c104.192-32.8704-58.3168-38.5024-58.3168-38.5024z" fill="#1679FF" p-id="6372"></path><path d="M545.6896 705.4336c0.0512 7.0144 1.2288 14.0288 3.4304 20.736a53.5552 53.5552 0 0 0-34.56-23.7568h-26.8288c-14.7968 3.5328-27.648 12.6464-35.84 25.4464 4.352-8.4992 6.5536-18.0224 6.4512-27.648a58.368 58.368 0 0 0-4.3008-22.8864c9.1648 12.1856 22.8864 20.1216 38.0416 22.016h25.9072c13.1072-3.2256 24.832-10.6496 33.28-21.1456a61.3888 61.3888 0 0 0-5.632 27.2384z" fill="#1679FF" p-id="6373"></path></svg>